G04*
G04 #@! TF.GenerationSoftware,Altium Limited,CircuitStudio,1.5.2 (30)*
G04*
G04 Layer_Color=15065295*
%FSLAX25Y25*%
%MOIN*%
G70*
G01*
G75*
%ADD19C,0.00787*%
%ADD20C,0.01575*%
%ADD21C,0.01000*%
%ADD22C,0.00984*%
D19*
X84685Y10000D02*
G03*
X84685Y30000I0J10000D01*
G01*
X75197Y53937D02*
G03*
X79134Y53937I1969J1969D01*
G01*
X83071D02*
G03*
X79134Y53937I-1969J-1969D01*
G01*
X19685Y5000D02*
Y67323D01*
X84685Y10000D02*
Y30000D01*
X54685Y50000D02*
X64685D01*
X54685Y20000D02*
Y50000D01*
Y20000D02*
X64685D01*
X44685Y35000D02*
Y67323D01*
X19685D02*
X44685D01*
X34685Y5000D02*
X44685D01*
X34685Y35000D02*
X44685D01*
Y5000D02*
Y35000D01*
X64685Y20000D02*
Y50000D01*
X59685Y14000D02*
Y20000D01*
Y50000D02*
Y56000D01*
X71260Y46063D02*
Y53937D01*
Y50000D02*
Y50000D01*
Y50000D02*
X75197Y46063D01*
X71260Y50000D02*
Y50000D01*
X79134Y57874D01*
X79134D01*
X87008Y50000D01*
X83071Y53937D02*
X90945D01*
X79134Y50000D02*
X87008D01*
X19685Y35000D02*
X34685D01*
X19685Y5000D02*
X34685D01*
X100394Y37008D02*
Y39632D01*
X101706Y40944D01*
X103017Y39632D01*
Y37008D01*
Y38976D01*
X100394D01*
X104329Y40944D02*
X105641D01*
X104985D01*
Y37008D01*
X104329D01*
X105641D01*
X107609Y38976D02*
X110233D01*
X111545Y37008D02*
X112857D01*
X112201D01*
Y40944D01*
X111545Y40288D01*
X117449Y37008D02*
X114825D01*
X117449Y39632D01*
Y40288D01*
X116793Y40944D01*
X115481D01*
X114825Y40288D01*
X121384Y37008D02*
X118761D01*
X121384Y39632D01*
Y40288D01*
X120728Y40944D01*
X119416D01*
X118761Y40288D01*
X122696D02*
X123352Y40944D01*
X124664D01*
X125320Y40288D01*
Y39632D01*
X124664Y38976D01*
X124008D01*
X124664D01*
X125320Y38320D01*
Y37664D01*
X124664Y37008D01*
X123352D01*
X122696Y37664D01*
X126632Y38976D02*
X129256D01*
X130568Y40944D02*
X133192D01*
X131880D01*
Y37008D01*
X134503Y40944D02*
Y37008D01*
X135815Y38320D01*
X137127Y37008D01*
Y40944D01*
X138439D02*
X141063D01*
X139751D01*
Y37008D01*
X100394Y32677D02*
X103017D01*
X104329Y33988D02*
X104985Y34644D01*
X106297D01*
X106953Y33988D01*
Y33332D01*
X106297Y32677D01*
X105641D01*
X106297D01*
X106953Y32021D01*
Y31365D01*
X106297Y30709D01*
X104985D01*
X104329Y31365D01*
X108265Y34644D02*
Y32021D01*
X109577Y30709D01*
X110889Y32021D01*
Y34644D01*
X112201Y32677D02*
X114825D01*
X118761Y30709D02*
X116137D01*
X118761Y33332D01*
Y33988D01*
X118105Y34644D01*
X116793D01*
X116137Y33988D01*
X120072Y32677D02*
X122696D01*
X124008Y30709D02*
Y34644D01*
X125976D01*
X126632Y33988D01*
Y32677D01*
X125976Y32021D01*
X124008D01*
X125320D02*
X126632Y30709D01*
X66929Y6298D02*
X69553D01*
X68241D01*
Y2362D01*
X70865D02*
Y6298D01*
X73489Y2362D01*
Y6298D01*
X74801Y5642D02*
X75457Y6298D01*
X76768D01*
X77424Y5642D01*
Y3018D01*
X76768Y2362D01*
X75457D01*
X74801Y3018D01*
Y5642D01*
X78736Y6298D02*
X81360D01*
Y5642D01*
X78736Y3018D01*
Y2362D01*
X82672Y5642D02*
X83328Y6298D01*
X84640D01*
X85296Y5642D01*
Y3018D01*
X84640Y2362D01*
X83328D01*
X82672Y3018D01*
Y5642D01*
X89232Y2362D02*
X86608D01*
X89232Y4986D01*
Y5642D01*
X88576Y6298D01*
X87264D01*
X86608Y5642D01*
X90544Y2362D02*
Y6298D01*
X93167Y2362D01*
Y6298D01*
X94479Y5642D02*
X95135Y6298D01*
X96447D01*
X97103Y5642D01*
Y4986D01*
X96447Y4330D01*
X95791D01*
X96447D01*
X97103Y3674D01*
Y3018D01*
X96447Y2362D01*
X95135D01*
X94479Y3018D01*
X98415Y4330D02*
X101039D01*
X104975Y5642D02*
X104319Y6298D01*
X103007D01*
X102351Y5642D01*
Y3018D01*
X103007Y2362D01*
X104319D01*
X104975Y3018D01*
Y4330D01*
X103663D01*
X69553Y66272D02*
X68897Y66928D01*
X67585D01*
X66929Y66272D01*
Y63648D01*
X67585Y62992D01*
X68897D01*
X69553Y63648D01*
X70865Y65616D02*
Y63648D01*
X71521Y62992D01*
X73489D01*
Y65616D01*
X75457Y66272D02*
Y65616D01*
X74801D01*
X76113D01*
X75457D01*
Y63648D01*
X76113Y62992D01*
X82016Y66928D02*
Y62992D01*
X83328Y64304D01*
X84640Y62992D01*
Y66928D01*
X85952Y62992D02*
X87264D01*
X86608D01*
Y65616D01*
X85952D01*
X89232D02*
Y62992D01*
Y64304D01*
X89888Y64960D01*
X90544Y65616D01*
X91199D01*
X95135Y62992D02*
X93823D01*
X93167Y63648D01*
Y64960D01*
X93823Y65616D01*
X95135D01*
X95791Y64960D01*
Y64304D01*
X93167D01*
X101039Y62992D02*
Y65616D01*
X102351Y66928D01*
X103663Y65616D01*
Y62992D01*
Y64960D01*
X101039D01*
X104975Y62992D02*
X106287D01*
X105631D01*
Y66928D01*
X104975D01*
X108910Y65616D02*
X110222D01*
X110878Y64960D01*
Y62992D01*
X108910D01*
X108254Y63648D01*
X108910Y64304D01*
X110878D01*
X112190Y65616D02*
Y62992D01*
Y64304D01*
X112846Y64960D01*
X113502Y65616D01*
X114158D01*
X116126Y62992D02*
Y65616D01*
X116782D01*
X117438Y64960D01*
Y62992D01*
Y64960D01*
X118094Y65616D01*
X118750Y64960D01*
Y62992D01*
X35433Y44750D02*
Y42126D01*
X32809Y44750D01*
X32153D01*
X31497Y44094D01*
Y42782D01*
X32153Y42126D01*
X33465Y46062D02*
Y48686D01*
X32153Y49997D02*
X31497Y50653D01*
Y51965D01*
X32153Y52621D01*
X32809D01*
X33465Y51965D01*
Y51309D01*
Y51965D01*
X34121Y52621D01*
X34777D01*
X35433Y51965D01*
Y50653D01*
X34777Y49997D01*
X31497Y53933D02*
X34121D01*
X35433Y55245D01*
X34121Y56557D01*
X31497D01*
D20*
X145669Y35433D02*
G03*
X145669Y35433I-25591J0D01*
G01*
X108268Y11024D02*
X132283D01*
D21*
X79196Y35645D02*
Y39644D01*
X78196Y40644D01*
X76196D01*
X75197Y39644D01*
Y35645D01*
X76196Y34646D01*
X78196D01*
X77196Y36645D02*
X79196Y34646D01*
X78196D02*
X79196Y35645D01*
X81195Y34646D02*
X83194D01*
X82195D01*
Y40644D01*
X81195Y39644D01*
X53150Y22441D02*
X47151D01*
Y25440D01*
X48151Y26440D01*
X50151D01*
X51150Y25440D01*
Y22441D01*
Y24440D02*
X53150Y26440D01*
Y28439D02*
Y30438D01*
Y29439D01*
X47151D01*
X48151Y28439D01*
X126577Y5432D02*
X125578Y6431D01*
X123578D01*
X122579Y5432D01*
Y4432D01*
X123578Y3432D01*
X125578D01*
X126577Y2432D01*
Y1433D01*
X125578Y433D01*
X123578D01*
X122579Y1433D01*
X128577Y433D02*
Y6431D01*
X131576D01*
X132576Y5432D01*
Y3432D01*
X131576Y2432D01*
X128577D01*
X134575Y433D02*
X136574D01*
X135574D01*
Y6431D01*
X134575Y5432D01*
D22*
X53150Y40551D02*
Y42257D01*
Y41404D01*
X48033D01*
X48886Y40551D01*
X53150Y44815D02*
X48033D01*
X49739Y46520D01*
X48033Y48226D01*
X53150D01*
X-100315Y296259D02*
X-96904D01*
X-98610Y297965D02*
Y294553D01*
X69685Y14171D02*
Y8268D01*
X72637D01*
X73621Y9252D01*
Y13187D01*
X72637Y14171D01*
X69685D01*
X72833Y32085D02*
X71849Y33069D01*
X69882D01*
X68898Y32085D01*
Y31101D01*
X69882Y30117D01*
X71849D01*
X72833Y29133D01*
Y28149D01*
X71849Y27165D01*
X69882D01*
X68898Y28149D01*
X24018Y9449D02*
Y13385D01*
Y11417D01*
X29921D01*
X25986Y15352D02*
X29921D01*
X27953D01*
X26970Y16336D01*
X25986Y17320D01*
Y18304D01*
X29921Y21256D02*
Y23224D01*
Y22240D01*
X25986D01*
Y21256D01*
X31889Y28144D02*
Y29127D01*
X30905Y30111D01*
X25986D01*
Y27160D01*
X26970Y26176D01*
X28937D01*
X29921Y27160D01*
Y30111D01*
X26576Y37008D02*
Y40944D01*
X23624Y42911D02*
X29528D01*
Y45863D01*
X28544Y46847D01*
X27560D01*
X26576Y45863D01*
Y42911D01*
Y45863D01*
X25592Y46847D01*
X24608D01*
X23624Y45863D01*
Y42911D01*
X29528Y48815D02*
X25592D01*
X23624Y50783D01*
X25592Y52751D01*
X29528D01*
X26576D01*
Y48815D01*
X23624Y54719D02*
Y58654D01*
Y56687D01*
X29528D01*
X26576Y60622D02*
Y64558D01*
X24608Y62590D02*
X28544D01*
X112401Y22047D02*
Y18636D01*
Y51968D02*
Y48557D01*
X114106Y50263D02*
X110695D01*
X72833Y23030D02*
X71849Y24014D01*
X69882D01*
X68898Y23030D01*
Y19094D01*
X69882Y18110D01*
X71849D01*
X72833Y19094D01*
Y21062D01*
X70865D01*
M02*
