G04*
G04 #@! TF.GenerationSoftware,Altium Limited,CircuitStudio,1.5.2 (30)*
G04*
G04 Layer_Physical_Order=1*
G04 Layer_Color=11767835*
%FSLAX25Y25*%
%MOIN*%
G70*
G01*
G75*
%ADD10C,0.07874*%
%ADD11C,0.05906*%
%ADD12O,0.07874X0.05512*%
%ADD13O,0.07874X0.05512*%
%ADD14R,0.05906X0.05906*%
%ADD15C,0.05906*%
%ADD16C,0.07874*%
%ADD17R,0.07874X0.07874*%
%ADD18C,0.15748*%
D10*
X110472Y60000D02*
X120079Y50394D01*
X109606Y10000D02*
X120079Y20472D01*
X79685Y10000D02*
X109606D01*
X59685Y60000D02*
X110472D01*
X39685D02*
X59685D01*
X39685Y10000D02*
X59685D01*
X39685Y30000D02*
Y40000D01*
Y30000D02*
X79685D01*
D11*
X69685Y20000D02*
X79685D01*
X59685Y10000D02*
X69685Y20000D01*
D12*
X79685Y30000D02*
D03*
Y20000D02*
D03*
D13*
Y10000D02*
D03*
D14*
X39685Y60000D02*
D03*
Y30000D02*
D03*
D15*
Y40000D02*
D03*
Y10000D02*
D03*
D16*
X59685D02*
D03*
Y60000D02*
D03*
X120079Y20472D02*
D03*
D17*
Y50394D02*
D03*
D18*
X9843Y61024D02*
D03*
Y9843D02*
D03*
X147638D02*
D03*
Y61024D02*
D03*
M02*
